{"accessors" : [{"bufferView" : 0, "byteOffset" : 0, "componentType" : 5123, "count" : 618, "type" : "SCALAR", "max" : [495], "min" : [0]}, {"bufferView" : 1, "byteOffset" : 0, "componentType" : 5126, "count" : 496, "type" : "VEC3", "max" : [0.05058620870113373, 1.7431418895721436, 0.1082543134689331], "min" : [0.012540645897388458, 1.705154538154602, 0.08934513479471207], "name" : "POSITION"}, {"bufferView" : 1, "byteOffset" : 12, "componentType" : 5126, "count" : 496, "type" : "VEC2", "max" : [0.9646214246749878, 1.9818061590194702], "min" : [0.019903719425201416, 1.0209906101226807], "name" : "TEXCOORD_0"}, {"bufferView" : 1, "byteOffset" : 20, "componentType" : 5126, "count" : 496, "type" : "VEC3", "max" : [0.9406006932258606, 0.9512309432029724, 1.0000042915344238], "min" : [-0.9471116065979004, -0.9485120177268982, -1.0000042915344238], "name" : "NORMAL"}, {"bufferView" : 0, "byteOffset" : 1236, "componentType" : 5123, "count" : 618, "type" : "SCALAR", "max" : [500], "min" : [0]}, {"bufferView" : 2, "byteOffset" : 0, "componentType" : 5126, "count" : 501, "type" : "VEC3", "max" : [-0.01280637551099062, 1.7431803941726685, 0.10825435072183609], "min" : [-0.05070069432258606, 1.7051148414611816, 0.08934517949819565], "name" : "POSITION"}, {"bufferView" : 2, "byteOffset" : 12, "componentType" : 5126, "count" : 501, "type" : "VEC2", "max" : [0.9585750699043274, 1.966354489326477], "min" : [0.006885886192321777, 1.022762417793274], "name" : "TEXCOORD_0"}, {"bufferView" : 2, "byteOffset" : 20, "componentType" : 5126, "count" : 501, "type" : "VEC3", "max" : [0.9310468435287476, 0.9478710293769836, 1.0000042915344238], "min" : [-0.9491647481918335, -0.9364743232727051, -1.0000042915344238], "name" : "NORMAL"}, {"bufferView" : 0, "byteOffset" : 2472, "componentType" : 5123, "count" : 12282, "type" : "SCALAR", "max" : [9739], "min" : [0]}, {"bufferView" : 3, "byteOffset" : 0, "componentType" : 5126, "count" : 9740, "type" : "VEC3", "max" : [0.09579431265592575, 1.8330844640731812, 0.13591794669628143], "min" : [-0.09610731154680252, 1.5206061601638794, -0.08657769858837128], "name" : "POSITION"}, {"bufferView" : 3, "byteOffset" : 12, "componentType" : 5126, "count" : 9740, "type" : "VEC2", "max" : [0.9943000078201294, 1.9807000160217285], "min" : [0.004999999888241291, 1.004349946975708], "name" : "TEXCOORD_0"}, {"bufferView" : 3, "byteOffset" : 20, "componentType" : 5126, "count" : 9740, "type" : "VEC3", "max" : [0.9992218613624573, 0.9998693466186523, 0.9999847412109375], "min" : [-0.9992175102233887, -0.9999938011169434, -0.9999959468841553], "name" : "NORMAL"}, {"bufferView" : 0, "byteOffset" : 27036, "componentType" : 5123, "count" : 300, "type" : "SCALAR", "max" : [241], "min" : [0]}, {"bufferView" : 4, "byteOffset" : 0, "componentType" : 5126, "count" : 242, "type" : "VEC3", "max" : [0.02798374369740486, 1.6767449378967285, 0.1150091141462326], "min" : [-0.02798374369740486, 1.6408199071884155, 0.04811359569430351], "name" : "POSITION"}, {"bufferView" : 4, "byteOffset" : 12, "componentType" : 5126, "count" : 242, "type" : "VEC2", "max" : [0.9808249473571777, 1.9832134246826172], "min" : [0.051069796085357666, 1.028295874595642], "name" : "TEXCOORD_0"}, {"bufferView" : 4, "byteOffset" : 20, "componentType" : 5126, "count" : 242, "type" : "VEC3", "max" : [0.9971882700920105, 0.8775893449783325, 0.9974808692932129], "min" : [-0.9971882700920105, -0.9858413934707642, -0.7650182843208313], "name" : "NORMAL"}, {"bufferView" : 0, "byteOffset" : 27636, "componentType" : 5123, "count" : 4230, "type" : "SCALAR", "max" : [3392], "min" : [0]}, {"bufferView" : 5, "byteOffset" : 0, "componentType" : 5126, "count" : 3393, "type" : "VEC3", "max" : [0.5314633250236511, 1.0861541032791138, 0.1485920399427414], "min" : [-0.5314706563949585, 0.8878016471862793, -0.00014507975720334798], "name" : "POSITION"}, {"bufferView" : 5, "byteOffset" : 12, "componentType" : 5126, "count" : 3393, "type" : "VEC3", "max" : [0.9983758926391602, 0.8493655920028687, 0.9933783411979675], "min" : [-0.9984799027442932, -0.9900056719779968, -0.9768104553222656], "name" : "NORMAL"}, {"bufferView" : 5, "byteOffset" : 24, "componentType" : 5126, "count" : 3393, "type" : "VEC2", "max" : [0.9857610464096069, 1.6144216060638428], "min" : [0.37126514315605164, 1.082613229751587], "name" : "TEXCOORD_0"}, {"bufferView" : 0, "byteOffset" : 36096, "componentType" : 5123, "count" : 3186, "type" : "SCALAR", "max" : [2609], "min" : [0]}, {"bufferView" : 6, "byteOffset" : 0, "componentType" : 5126, "count" : 2610, "type" : "VEC3", "max" : [0.2226209193468094, 1.0486634969711304, 0.14709320664405823], "min" : [-0.2226209193468094, 0.07677861303091049, -0.14543117582798004], "name" : "POSITION"}, {"bufferView" : 6, "byteOffset" : 12, "componentType" : 5126, "count" : 2610, "type" : "VEC3", "max" : [0.9990678429603577, 0.5716562867164612, 0.9980019927024841], "min" : [-0.9990822672843933, -0.9987228512763977, -0.9995765089988708], "name" : "NORMAL"}, {"bufferView" : 6, "byteOffset" : 24, "componentType" : 5126, "count" : 2610, "type" : "VEC2", "max" : [0.981376588344574, 1.9759528636932373], "min" : [0.027726292610168457, 1.0233712196350098], "name" : "TEXCOORD_0"}, {"bufferView" : 0, "byteOffset" : 42468, "componentType" : 5123, "count" : 3864, "type" : "SCALAR", "max" : [3065], "min" : [0]}, {"bufferView" : 7, "byteOffset" : 0, "componentType" : 5126, "count" : 3066, "type" : "VEC3", "max" : [0.23255236446857452, 0.21140487492084503, 0.22893664240837097], "min" : [-0.23254439234733582, -0.0008667731308378279, -0.13066308200359344], "name" : "POSITION"}, {"bufferView" : 7, "byteOffset" : 12, "componentType" : 5126, "count" : 3066, "type" : "VEC3", "max" : [0.9998719096183777, 0.9985367059707642, 0.988834798336029], "min" : [-0.9998718500137329, -0.9993569850921631, -0.979004442691803], "name" : "NORMAL"}, {"bufferView" : 7, "byteOffset" : 24, "componentType" : 5126, "count" : 3066, "type" : "VEC2", "max" : [0.9791603684425354, 1.9840543270111084], "min" : [0.010693462565541267, 1.020824670791626], "name" : "TEXCOORD_0"}, {"bufferView" : 0, "byteOffset" : 50196, "componentType" : 5123, "count" : 10524, "type" : "SCALAR", "max" : [8514], "min" : [0]}, {"bufferView" : 8, "byteOffset" : 0, "componentType" : 5126, "count" : 8515, "type" : "VEC3", "max" : [0.4676135778427124, 1.6295026540756226, 0.19392812252044678], "min" : [-0.4676135778427124, 1.0184078216552734, -0.15728764235973358], "name" : "POSITION"}, {"bufferView" : 8, "byteOffset" : 12, "componentType" : 5126, "count" : 8515, "type" : "VEC3", "max" : [0.9995924830436707, 0.9844180941581726, 1.0000028610229492], "min" : [-0.9998469352722168, -0.994229257106781, -0.9991576671600342], "name" : "NORMAL"}, {"bufferView" : 8, "byteOffset" : 24, "componentType" : 5126, "count" : 8515, "type" : "VEC2", "max" : [0.9843761920928955, 1.9911075830459595], "min" : [0.007254177238792181, 1.015061378479004], "name" : "TEXCOORD_0"}, {"bufferView" : 0, "byteOffset" : 71244, "componentType" : 5123, "count" : 8757, "type" : "SCALAR", "max" : [7292], "min" : [0]}, {"bufferView" : 9, "byteOffset" : 0, "componentType" : 5126, "count" : 7293, "type" : "VEC3", "max" : [0.09497568011283875, 1.8570337295532227, 0.14883509278297424], "min" : [-0.09929926693439484, 1.6273796558380127, -0.0900489091873169], "name" : "POSITION"}, {"bufferView" : 9, "byteOffset" : 12, "componentType" : 5126, "count" : 7293, "type" : "VEC3", "max" : [0.9998418688774109, 0.999496340751648, 0.9992684721946716], "min" : [-0.9998454451560974, -0.99923175573349, -0.9999983310699463], "name" : "NORMAL"}, {"bufferView" : 9, "byteOffset" : 24, "componentType" : 5126, "count" : 7293, "type" : "VEC2", "max" : [0.990181028842926, 1.998046875], "min" : [0.0019531213911250234, 1.001953125], "name" : "TEXCOORD_0"}], "asset" : {"generator" : "Aspose.3D 24.1.0", "version" : "2.0"}, "buffers" : [{"uri" : "data:application/octet-stream;base64,", "byteLength" : 1508928}], "bufferViews" : [{"buffer" : 0, "byteOffset" : 0, "byteLength" : 88760, "target" : 34963}, {"buffer" : 0, "byteOffset" : 88764, "byteLength" : 19776, "byteStride" : 32, "target" : 34962}, {"buffer" : 0, "byteOffset" : 108544, "byteLength" : 19776, "byteStride" : 32, "target" : 34962}, {"buffer" : 0, "byteOffset" : 128324, "byteLength" : 393024, "byteStride" : 32, "target" : 34962}, {"buffer" : 0, "byteOffset" : 521352, "byteLength" : 9600, "byteStride" : 32, "target" : 34962}, {"buffer" : 0, "byteOffset" : 530956, "byteLength" : 135360, "byteStride" : 32, "target" : 34962}, {"buffer" : 0, "byteOffset" : 666320, "byteLength" : 101952, "byteStride" : 32, "target" : 34962}, {"buffer" : 0, "byteOffset" : 768276, "byteLength" : 123648, "byteStride" : 32, "target" : 34962}, {"buffer" : 0, "byteOffset" : 891928, "byteLength" : 336768, "byteStride" : 32, "target" : 34962}, {"buffer" : 0, "byteOffset" : 1228700, "byteLength" : 280224, "byteStride" : 32, "target" : 34962}], "images" : [{"uri" : "data:image/jpeg;base64,"}, {"uri" : "data:image/jpeg;base64,"}, {"uri" : "data:image/jpeg;base64,"}, {"uri" : "data:image/jpeg;base64,"}, {"uri" : "data:image/jpeg;base64,"}, {"uri" : "data:image/jpeg;base64,"}, {"uri" : "data:image/jpeg;base64,"}, {"uri" : "data:image/jpeg;base64,"}, {"uri" : "data:image/jpeg;base64,"}, {"uri" : "data:image/jpeg;base64,"}, {"uri" : "data:image/jpeg;base64,"}, {"uri" : "data:image/jpeg;base64,"}, {"uri" : "data:image/jpeg;base64,"}, {"uri" : "data:image/jpeg;base64,"}, {"uri" : "data:image/jpeg;base64,"}, {"uri" : "data:image/jpeg;base64,"}], "materials" : [{"name" : "Wolf3D_Eye", "pbrMetallicRoughness" : {"baseColorFactor" : [1, 1, 1, 1], "baseColorTexture" : {"index" : 0, "texCoord" : 0}, "metallicFactor" : 0, "roughnessFactor" : 1}, "emissiveFactor" : [0, 0, 0], "alphaMode" : "OPAQUE", "doubleSided" : false}, {"name" : "Wolf3D_Eye", "pbrMetallicRoughness" : {"baseColorFactor" : [1, 1, 1, 1], "baseColorTexture" : {"index" : 0, "texCoord" : 0}, "metallicFactor" : 0, "roughnessFactor" : 1}, "emissiveFactor" : [0, 0, 0], "alphaMode" : "OPAQUE", "doubleSided" : false}, {"name" : "Wolf3D_Skin", "pbrMetallicRoughness" : {"baseColorFactor" : [1, 1, 1, 1], "baseColorTexture" : {"index" : 1, "texCoord" : 0}, "metallicFactor" : 0, "roughnessFactor" : 0.699999988079071}, "emissiveFactor" : [0, 0, 0], "alphaMode" : "OPAQUE", "doubleSided" : false}, {"name" : "Wolf3D_Teeth", "pbrMetallicRoughness" : {"baseColorFactor" : [1, 1, 1, 1], "baseColorTexture" : {"index" : 2, "texCoord" : 0}, "metallicFactor" : 0, "roughnessFactor" : 1}, "emissiveFactor" : [0, 0, 0], "alphaMode" : "OPAQUE", "doubleSided" : true}, {"name" : "Wolf3D_Body", "pbrMetallicRoughness" : {"baseColorFactor" : [1, 1, 1, 1], "baseColorTexture" : {"index" : 4, "texCoord" : 0}, "metallicFactor" : 0, "roughnessFactor" : 0.6618773341178894}, "normalTexture" : {"index" : 3, "texCoord" : 0, "scale" : 1}, "emissiveFactor" : [0, 0, 0], "alphaMode" : "OPAQUE", "doubleSided" : false}, {"name" : "Wolf3D_Outfit_Bottom", "pbrMetallicRoughness" : {"baseColorFactor" : [1, 1, 1, 1], "baseColorTexture" : {"index" : 6, "texCoord" : 0}, "metallicFactor" : 0, "roughnessFactor" : 1, "metallicRoughnessTexture" : {"index" : 7, "texCoord" : 0}}, "normalTexture" : {"index" : 5, "texCoord" : 0, "scale" : 1}, "emissiveFactor" : [0, 0, 0], "alphaMode" : "OPAQUE", "doubleSided" : false}, {"name" : "Wolf3D_Outfit_Footwear", "pbrMetallicRoughness" : {"baseColorFactor" : [1, 1, 1, 1], "baseColorTexture" : {"index" : 9, "texCoord" : 0}, "metallicFactor" : 1, "roughnessFactor" : 1, "metallicRoughnessTexture" : {"index" : 10, "texCoord" : 0}}, "normalTexture" : {"index" : 8, "texCoord" : 0, "scale" : 1}, "emissiveFactor" : [0, 0, 0], "alphaMode" : "OPAQUE", "doubleSided" : false}, {"name" : "Wolf3D_Outfit_Top", "pbrMetallicRoughness" : {"baseColorFactor" : [1, 1, 1, 1], "baseColorTexture" : {"index" : 12, "texCoord" : 0}, "metallicFactor" : 1, "roughnessFactor" : 1, "metallicRoughnessTexture" : {"index" : 13, "texCoord" : 0}}, "normalTexture" : {"index" : 11, "texCoord" : 0, "scale" : 1}, "emissiveFactor" : [0, 0, 0], "alphaMode" : "OPAQUE", "doubleSided" : false}, {"name" : "Wolf3D_Hair", "pbrMetallicRoughness" : {"baseColorFactor" : [1, 1, 1, 1], "baseColorTexture" : {"index" : 15, "texCoord" : 0}, "metallicFactor" : 0, "roughnessFactor" : 1}, "normalTexture" : {"index" : 14, "texCoord" : 0, "scale" : 1}, "emissiveFactor" : [0, 0, 0], "alphaMode" : "OPAQUE", "doubleSided" : true}], "meshes" : [{"primitives" : [{"attributes" : {"POSITION" : 1, "TEXCOORD_0" : 2, "NORMAL" : 3}, "indices" : 0, "material" : 0, "mode" : 4}]}, {"primitives" : [{"attributes" : {"POSITION" : 5, "TEXCOORD_0" : 6, "NORMAL" : 7}, "indices" : 4, "material" : 1, "mode" : 4}]}, {"primitives" : [{"attributes" : {"POSITION" : 9, "TEXCOORD_0" : 10, "NORMAL" : 11}, "indices" : 8, "material" : 2, "mode" : 4}]}, {"primitives" : [{"attributes" : {"POSITION" : 13, "TEXCOORD_0" : 14, "NORMAL" : 15}, "indices" : 12, "material" : 3, "mode" : 4}]}, {"primitives" : [{"attributes" : {"POSITION" : 17, "NORMAL" : 18, "TEXCOORD_0" : 19}, "indices" : 16, "material" : 4, "mode" : 4}]}, {"primitives" : [{"attributes" : {"POSITION" : 21, "NORMAL" : 22, "TEXCOORD_0" : 23}, "indices" : 20, "material" : 5, "mode" : 4}]}, {"primitives" : [{"attributes" : {"POSITION" : 25, "NORMAL" : 26, "TEXCOORD_0" : 27}, "indices" : 24, "material" : 6, "mode" : 4}]}, {"primitives" : [{"attributes" : {"POSITION" : 29, "NORMAL" : 30, "TEXCOORD_0" : 31}, "indices" : 28, "material" : 7, "mode" : 4}]}, {"primitives" : [{"attributes" : {"POSITION" : 33, "NORMAL" : 34, "TEXCOORD_0" : 35}, "indices" : 32, "material" : 8, "mode" : 4}]}], "nodes" : [{"mesh" : 0, "name" : "EyeLeft"}, {"mesh" : 1, "name" : "EyeRight"}, {"mesh" : 2, "name" : "Wolf3D_Head"}, {"mesh" : 3, "name" : "Wolf3D_Teeth"}, {"mesh" : 4, "name" : "Wolf3D_Body"}, {"mesh" : 5, "name" : "Wolf3D_Outfit_Bottom"}, {"mesh" : 6, "name" : "Wolf3D_Outfit_Footwear"}, {"mesh" : 7, "name" : "Wolf3D_Outfit_Top"}, {"mesh" : 8, "name" : "Wolf3D_Hair"}, {"children" : [0, 1, 2, 3, 4, 5, 6, 7, 8], "name" : "Armature"}], "samplers" : [{"magFilter" : 9728, "minFilter" : 9728, "wrapS" : 10497, "wrapT" : 10497}, {"magFilter" : 9728, "minFilter" : 9728, "wrapS" : 10497, "wrapT" : 10497}, {"magFilter" : 9729, "minFilter" : 9987, "wrapS" : 10497, "wrapT" : 10497}, {"magFilter" : 9729, "minFilter" : 9987, "wrapS" : 10497, "wrapT" : 10497}, {"magFilter" : 9728, "minFilter" : 9728, "wrapS" : 10497, "wrapT" : 10497}, {"magFilter" : 9729, "minFilter" : 9987, "wrapS" : 10497, "wrapT" : 10497}, {"magFilter" : 9729, "minFilter" : 9987, "wrapS" : 10497, "wrapT" : 10497}, {"magFilter" : 9729, "minFilter" : 9987, "wrapS" : 10497, "wrapT" : 10497}, {"magFilter" : 9729, "minFilter" : 9987, "wrapS" : 10497, "wrapT" : 10497}, {"magFilter" : 9729, "minFilter" : 9987, "wrapS" : 10497, "wrapT" : 10497}, {"magFilter" : 9729, "minFilter" : 9987, "wrapS" : 10497, "wrapT" : 10497}, {"magFilter" : 9729, "minFilter" : 9987, "wrapS" : 10497, "wrapT" : 10497}, {"magFilter" : 9729, "minFilter" : 9987, "wrapS" : 10497, "wrapT" : 10497}, {"magFilter" : 9729, "minFilter" : 9987, "wrapS" : 10497, "wrapT" : 10497}, {"magFilter" : 9729, "minFilter" : 9987, "wrapS" : 10497, "wrapT" : 10497}, {"magFilter" : 9728, "minFilter" : 9728, "wrapS" : 10497, "wrapT" : 10497}], "scene" : 0, "scenes" : [{"nodes" : [9]}], "textures" : [{"sampler" : 0, "source" : 0, "name" : ""}, {"sampler" : 1, "source" : 1, "name" : ""}, {"sampler" : 2, "source" : 2, "name" : ""}, {"sampler" : 3, "source" : 3, "name" : ""}, {"sampler" : 4, "source" : 4, "name" : ""}, {"sampler" : 5, "source" : 5, "name" : ""}, {"sampler" : 6, "source" : 6, "name" : ""}, {"sampler" : 7, "source" : 7, "name" : ""}, {"sampler" : 8, "source" : 8, "name" : ""}, {"sampler" : 9, "source" : 9, "name" : ""}, {"sampler" : 10, "source" : 10, "name" : ""}, {"sampler" : 11, "source" : 11, "name" : ""}, {"sampler" : 12, "source" : 12, "name" : ""}, {"sampler" : 13, "source" : 13, "name" : ""}, {"sampler" : 14, "source" : 14, "name" : ""}, {"sampler" : 15, "source" : 15, "name" : ""}]}